<svg preserveAspectRatio="none" overflow="visible" style="display: block;" width="166" height="43" viewBox="0 0 166 43" fill="none" xmlns="http://www.w3.org/2000/svg">
<g id="prezly-mono">
<g id="Vector">
<path d="M29.6375 14.6199L29.4527 14.5132C29.3394 14.4482 29.1856 14.3598 29.0215 14.267C28.6947 14.0822 28.3216 13.8762 28.153 13.8016C27.7946 13.6438 27.4907 13.7249 27.1963 13.882C27.0116 13.9814 26.8232 14.1012 26.6627 14.205L26.5045 14.3094C26.4169 14.3679 26.3463 14.4146 26.2999 14.4424L26.2536 14.4716L20.9547 17.9785C20.3166 18.3942 19.8795 18.5981 19.4048 18.6127C18.9301 18.6273 18.398 18.4505 17.5759 18.0706L6.0215 12.6254C5.66383 12.4398 5.5527 12.1614 5.57993 11.9043C5.59678 11.7712 5.64572 11.6441 5.7226 11.5339C5.79947 11.4236 5.90201 11.3334 6.0215 11.2708L17.679 4.50396C18.2214 4.15982 18.749 4.00202 19.2686 4.0086C19.7882 4.01518 20.3078 4.18321 20.8274 4.50396L34.9355 12.7598C34.9567 12.7716 34.9776 12.7845 34.9973 12.7985C35.223 12.9566 35.4082 13.1649 35.538 13.4069C35.6679 13.6489 35.7389 13.9177 35.7452 14.1918V14.1954C35.7467 14.2178 35.7467 14.2403 35.7452 14.2627L34.5543 30.4355C34.5543 31.4041 33.772 32.091 32.7784 32.091C32.7784 32.091 21.5634 32.9246 20.915 32.9466C20.3033 32.967 19.8736 33.0479 19.549 33.1985C19.303 33.3199 19.0735 33.4718 18.8661 33.6507L18.7792 33.7203C18.7792 33.7203 17.3024 34.8605 15.639 36.4525C15.3932 36.6879 14.6822 37.3858 14.3511 37.4543C14.0508 37.5165 13.6629 37.3858 13.5047 37.1365C13.2934 36.8056 13.1632 36.3093 13.0234 35.8652C12.8107 35.1887 12.7643 34.9426 12.6193 34.4772C12.4743 34.0117 12.3065 33.6471 11.8657 33.2291C11.4587 32.8718 10.9825 32.7675 10.2657 32.6907C10.2657 32.6907 7.02756 32.2647 6.64487 32.1793C6.26217 32.0939 5.72787 31.9822 5.43053 31.7228C5.13322 31.4634 4.93083 31.0492 4.86461 30.445L4.1809 22.3717C4.17515 22.3018 4.17 22.2319 4.16544 22.162V22.151C4.16102 22.0853 4.15735 22.0195 4.15146 21.9552C4.14233 21.8209 4.11764 21.688 4.07787 21.5592C3.99248 21.2991 3.81439 21.0792 3.43686 20.917L1.34087 19.9388C1.22037 19.8739 1.08429 19.8431 0.947409 19.8497C0.810525 19.8563 0.678071 19.9 0.564432 19.976C0.505505 20.0251 0.457579 20.0859 0.423739 20.1545C0.389899 20.223 0.370894 20.2979 0.367949 20.3742C0.356359 20.5059 0.352919 20.6381 0.357648 20.7702V20.9828L1.01998 30.3528C1.13259 32.3809 1.71106 33.8202 2.68102 34.768C3.65102 35.7155 4.99633 36.0828 6.63899 36.229C7.28809 36.2853 7.97472 36.3926 8.15284 36.4525C8.16093 36.4525 8.50168 36.5616 8.69374 36.7617C8.79179 36.8522 8.86737 36.964 8.91453 37.0884C8.98431 37.2481 9.045 37.4115 9.09632 37.5779C9.26337 38.1347 9.80872 39.9434 9.96767 40.4586C10.1561 41.0708 10.4556 41.6824 10.9693 42.1805C11.444 42.6418 12.3271 43.007 13.1367 42.9706C13.9462 42.9338 14.4253 42.7272 15.0678 42.2398C16.8165 40.9247 20.5036 37.7152 20.8494 37.4178C21.1954 37.1204 21.5209 36.9565 21.9968 36.9319C24.6176 36.7967 28.5681 36.5548 32.7748 36.2248C34.8472 36.0662 36.5224 35.5548 37.4378 34.4802C38.3535 33.4052 38.689 31.9673 38.689 30.445C38.6884 30.4382 38.6884 30.4317 38.689 30.4251L39.8878 14.2787V14.1925C39.8731 12.366 38.669 10.6644 37.1559 9.63866L37.092 9.5992L22.4928 1.13439C21.5705 0.523056 20.487 0.195693 19.3781 0.193352C18.2692 0.19101 17.1842 0.513793 16.2593 1.12123L16.2203 1.14388L1.48806 9.40852L1.41447 9.45233C-0.747774 10.9136 -0.339313 14.0457 2.01499 15.1832L16.8172 22.1788C18.73 23.2075 20.3858 23.1344 22.4097 21.7097L30.4589 16.6466C30.6708 16.5293 30.85 16.3616 30.9805 16.1586C31.0444 16.0538 31.0776 15.9333 31.0763 15.8108C31.0698 15.6722 31.0181 15.5394 30.9291 15.4324L30.89 15.3797C30.8697 15.3516 30.8447 15.327 30.8166 15.3067L30.676 15.2139L30.6589 15.2037L29.6404 14.6192L29.6375 14.6199ZM89.6934 16.028C84.0748 16.028 82.7594 18.458 82.7594 24.2053V32.4719C82.7594 32.67 82.6799 32.8603 82.539 33.0002C82.4692 33.0696 82.3863 33.1247 82.2951 33.1623C82.2039 33.1999 82.1061 33.2193 82.0073 33.2193H78.6055C78.5067 33.2193 78.4087 33.2 78.3174 33.1627C78.226 33.1251 78.1431 33.0701 78.0731 33.0008C78.003 32.9314 77.9478 32.8487 77.9098 32.758C77.872 32.6673 77.8525 32.5701 77.8525 32.4719V11.8871C77.8525 11.7889 77.8719 11.6916 77.9098 11.6009C77.9476 11.5101 78.0031 11.4277 78.0731 11.3583C78.143 11.2889 78.226 11.2339 78.3174 11.1964C78.4087 11.1589 78.5066 11.1397 78.6055 11.1398H81.9177C82.0165 11.1399 82.1143 11.1592 82.2055 11.1968C82.2967 11.2343 82.3796 11.2893 82.4495 11.3587C82.5905 11.4989 82.6697 11.689 82.6698 11.8871V13.7689C82.6698 14.2691 83.0985 14.2394 83.3965 13.7315C84.9547 11.0738 88.0639 10.8624 89.8314 10.875C89.9362 10.8772 90.0395 10.9013 90.1344 10.9457C90.2291 10.99 90.3135 11.0537 90.3822 11.1325C90.4506 11.2114 90.5016 11.3037 90.5321 11.4034C90.5623 11.5031 90.5712 11.608 90.5584 11.7114L90.158 15.6167C90.1464 15.7306 90.0923 15.8361 90.0063 15.9123C89.9203 15.9884 89.8087 16.0298 89.6934 16.028ZM113.451 29.6855C113.451 29.6398 113.468 29.5958 113.499 29.5621L125.556 15.9587C125.581 15.932 125.597 15.8987 125.602 15.8631C125.608 15.8274 125.603 15.7909 125.588 15.758C125.573 15.725 125.549 15.6972 125.518 15.6778C125.488 15.6582 125.452 15.6479 125.416 15.6481H114.65C114.45 15.6482 114.259 15.5695 114.117 15.4294C114.047 15.3601 113.992 15.2778 113.954 15.1872C113.916 15.0966 113.897 14.9994 113.897 14.9013V11.9394C113.897 11.7413 113.976 11.5514 114.117 11.4113C114.259 11.2713 114.45 11.1926 114.65 11.1926H131.336C131.536 11.1926 131.727 11.2713 131.868 11.4113C131.938 11.4806 131.994 11.5629 132.032 11.6535C132.069 11.7441 132.089 11.8413 132.089 11.9394V14.7084C132.089 14.8911 132.021 15.0674 131.899 15.2039L119.983 28.6475C119.959 28.6743 119.943 28.7075 119.937 28.7432C119.932 28.7788 119.937 28.8152 119.951 28.8482C119.966 28.8811 119.991 28.909 120.021 28.9285C120.052 28.948 120.087 28.9583 120.124 28.9581H131.337C131.536 28.9581 131.728 29.0367 131.869 29.1768C131.939 29.2461 131.995 29.3284 132.033 29.419C132.07 29.5097 132.09 29.6068 132.09 29.7049V32.4704C132.09 32.5686 132.071 32.6655 132.033 32.7562C131.995 32.8468 131.939 32.9291 131.869 32.9984C131.799 33.0679 131.716 33.123 131.625 33.1603C131.534 33.1979 131.436 33.2173 131.337 33.2172H114.205C114.106 33.2172 114.008 33.1983 113.917 33.1606C113.825 33.1233 113.742 33.0684 113.672 32.999C113.602 32.9297 113.546 32.8473 113.508 32.7566C113.47 32.6659 113.451 32.5687 113.451 32.4704V29.6855ZM140.794 3.12834C140.995 3.12834 141.188 3.20693 141.33 3.34683C141.4 3.41585 141.456 3.498 141.494 3.58854C141.532 3.67908 141.552 3.77621 141.552 3.87433V32.4829C141.552 32.5834 141.531 32.6827 141.491 32.7749C141.451 32.8671 141.393 32.9507 141.319 33.0201C141.246 33.0898 141.159 33.144 141.064 33.1796C140.969 33.2152 140.867 33.2318 140.765 33.2279H137.339C137.143 33.2207 136.958 33.1389 136.821 32.9996C136.685 32.8611 136.609 32.6754 136.609 32.482V3.87433C136.609 3.77626 136.628 3.67917 136.666 3.5886C136.705 3.49784 136.761 3.41553 136.831 3.34645C136.902 3.27709 136.985 3.22216 137.077 3.18479C137.169 3.14737 137.268 3.12819 137.368 3.12834H140.794ZM161.025 11.6244C161.076 11.4777 161.172 11.3506 161.3 11.2608C161.428 11.1708 161.581 11.1225 161.737 11.1225H165.232C165.354 11.1225 165.475 11.1518 165.583 11.2081C165.691 11.2643 165.784 11.3458 165.854 11.4456C165.923 11.5452 165.967 11.6601 165.981 11.7803C165.996 11.9005 165.981 12.0223 165.937 12.1353L157.784 33.5478C156.077 37.9743 154.252 39.9878 150.859 40.0285C149.047 40.0501 147.489 39.335 146.124 38.499C145.943 38.3884 145.834 38.2936 145.764 38.0949C145.693 37.8963 145.713 37.6911 145.79 37.5568C146.124 36.9782 147.071 35.6589 147.406 35.1196C147.504 34.961 147.567 34.8404 147.804 34.8C148.012 34.7648 148.146 34.8012 148.331 34.913C149.176 35.4217 149.72 35.6085 150.71 35.5471C152.057 35.4638 152.729 33.9839 153.117 32.9166C153.505 31.8493 153.64 31.4444 153.64 31.4195C153.64 31.3946 153.597 31.308 153.587 31.2852L144.715 12.1536C144.668 12.0404 144.651 11.9177 144.663 11.7962C144.676 11.6747 144.719 11.5582 144.788 11.4568C144.857 11.3554 144.95 11.2723 145.059 11.2149C145.168 11.1574 145.289 11.1272 145.412 11.1271H149.01C149.163 11.1273 149.312 11.1734 149.438 11.2593C149.564 11.3451 149.661 11.4668 149.716 11.6084L155.923 25.2254C155.936 25.2614 155.961 25.2923 155.993 25.3137C156.025 25.3354 156.063 25.3466 156.102 25.346C156.141 25.3453 156.178 25.3329 156.21 25.3102C156.241 25.2877 156.264 25.2561 156.277 25.2197L161.025 11.6244Z" fill="white"/>
<path fill-rule="evenodd" clip-rule="evenodd" d="M74.8158 22.1986C74.8158 29.4012 70.4557 33.4826 65.3321 33.4826C62.0595 33.4826 59.9009 31.9416 58.4051 30.1222C58.3795 30.0929 58.3457 30.0719 58.308 30.0617C58.2704 30.0515 58.2305 30.0527 58.1935 30.065C58.1565 30.0771 58.1239 30.0999 58.1 30.1305C58.076 30.1609 58.0618 30.1978 58.0591 30.2363V39.2847C58.0591 39.3825 58.0397 39.4794 58.0018 39.5698C57.9637 39.6602 57.9082 39.7423 57.8385 39.8115C57.7683 39.8806 57.6851 39.9354 57.5937 39.9727C57.5021 40.0104 57.404 40.0297 57.3049 40.0297H53.8894C53.7903 40.0297 53.6924 40.0104 53.6007 39.9727C53.5094 39.9354 53.4263 39.8806 53.3562 39.8115C53.2862 39.7424 53.2306 39.6603 53.1926 39.5698C53.1547 39.4795 53.1352 39.3825 53.1352 39.2847V11.8862C53.1352 11.6886 53.2147 11.4991 53.3562 11.3594C53.4979 11.2196 53.6896 11.1411 53.8894 11.1412H57.3005C57.5005 11.1412 57.6922 11.2197 57.8337 11.3594C57.9037 11.4284 57.9592 11.5105 57.9971 11.6009C58.0351 11.6913 58.0546 11.7883 58.0546 11.8862V14.3694C58.0562 14.4095 58.0701 14.4482 58.0946 14.4801C58.1192 14.5122 58.153 14.536 58.1916 14.5485C58.2302 14.5609 58.2717 14.5612 58.3105 14.5495C58.3493 14.5379 58.3836 14.5148 58.4087 14.4833C59.9699 12.4613 62.1264 10.9121 65.3276 10.9121C70.4142 10.9144 74.8158 14.9959 74.8158 22.1986ZM64.4373 15.2408C67.6361 15.2408 70.3276 17.9417 70.3276 22.1986C70.3276 26.4953 67.6755 29.1552 64.4373 29.1552C61.2385 29.1552 58.5655 26.4133 58.5655 22.1986C58.5655 17.9838 61.2442 15.2112 64.4432 15.2112L64.4373 15.2408ZM96.5472 23.8931C96.52 23.8928 96.4931 23.8985 96.4684 23.9097C96.4437 23.921 96.4217 23.9375 96.4042 23.9581C96.3868 23.9788 96.3741 24.0029 96.3672 24.029C96.3602 24.055 96.3592 24.0822 96.3642 24.1087C96.4684 27.3135 99.3973 29.5027 102.5 29.5027C104.479 29.5027 105.988 28.8879 107.414 27.7267C107.845 27.3766 108.518 27.5317 108.697 28.0552L109.423 30.1803C109.473 30.3238 109.477 30.4791 109.433 30.6247C109.39 30.7703 109.302 30.8988 109.181 30.9923C107.023 32.6439 104.87 33.5623 102.419 33.5623C96.2039 33.5623 91.4117 28.8948 91.4117 22.1742C91.4117 15.9452 95.7569 10.8637 101.895 10.8637C108.718 10.8637 112.033 16.4129 112.033 22.6829C112.025 22.879 111.972 23.0709 111.88 23.2441C111.717 23.5977 111.367 23.8954 110.974 23.8954L96.5472 23.8931ZM107.27 20.015C107.273 20.0408 107.271 20.0671 107.263 20.0919C107.255 20.1167 107.242 20.1397 107.224 20.1591C107.207 20.1784 107.185 20.1939 107.161 20.2045C107.137 20.2151 107.111 20.2204 107.085 20.2203H96.5C96.4734 20.2202 96.447 20.2145 96.4227 20.2035C96.3984 20.1925 96.3768 20.1765 96.3594 20.1564C96.3419 20.1364 96.329 20.1129 96.3215 20.0875C96.3138 20.0622 96.3119 20.0354 96.3158 20.0092C96.8216 16.7619 98.9076 14.9186 101.845 14.9186C105.03 14.9186 106.887 16.917 107.27 20.015Z" fill="white"/>
</g>
</g>
</svg>
